<?xml version="1.0" encoding="UTF-8" standalone="no"?>
<!-- Generator: Adobe Illustrator 25.0.0, SVG Export Plug-In . SVG Version: 6.00 Build 0)  -->

<svg
   version="1.1"
   id="Layer_1"
   x="0px"
   y="0px"
   viewBox="0 0 404.6 62.8"
   style="enable-background:new 0 0 404.6 62.8;"
   xml:space="preserve"
   sodipodi:docname="SecuringWiFi.svg"
   inkscape:version="1.3 (0e150ed6c4, 2023-07-21)"
   xmlns:inkscape="http://www.inkscape.org/namespaces/inkscape"
   xmlns:sodipodi="http://sodipodi.sourceforge.net/DTD/sodipodi-0.dtd"
   xmlns="http://www.w3.org/2000/svg"
   xmlns:svg="http://www.w3.org/2000/svg"><defs
   id="defs23" /><sodipodi:namedview
   id="namedview23"
   pagecolor="#ffffff"
   bordercolor="#666666"
   borderopacity="1.0"
   inkscape:showpageshadow="2"
   inkscape:pageopacity="0.0"
   inkscape:pagecheckerboard="0"
   inkscape:deskcolor="#d1d1d1"
   inkscape:zoom="3.1685615"
   inkscape:cx="202.3"
   inkscape:cy="31.402263"
   inkscape:window-width="1920"
   inkscape:window-height="1056"
   inkscape:window-x="0"
   inkscape:window-y="0"
   inkscape:window-maximized="1"
   inkscape:current-layer="Layer_1" />&#10;<style
   type="text/css"
   id="style1">&#10;	.st0{fill:none;}&#10;</style>&#10;<g
   id="g23"
   style="fill:#ffffff">&#10;	<g
   id="g10"
   style="fill:#ffffff">&#10;		<path
   class="st0"
   d="M8.1,29.1l5.2,5.2l3.8,3.8l1.8-1.8V34c0-1.5,1.2-2.7,2.7-2.7h2.2l2.2-2.2c-2.3-2.2-5.5-3.6-8.9-3.6    S10.5,26.9,8.1,29.1z"
   id="path1"
   style="fill:#ffffff" />&#10;		<path
   class="st0"
   d="M64.1,13.8c-1.4-0.7-2.8-1.3-4.3-1.8v35.4c-3.4-1.2-6.8-1.8-10.3-1.8c-5.6,0-11.1,1.6-16.2,4.7V14.6    c-4.8-2.7-10.3-4.4-16.2-4.4c-5.3,0-10.2,1.3-14.6,3.5c-1,0.5-1.6,1.5-1.6,2.6v35.5c0,1.7,1.4,2.9,2.9,2.9c0.5,0,0.9-0.1,1.4-0.3    c3.6-1.8,7.5-3,11.8-3c6.1,0,11.7,2.4,16.2,5.9c4.5-3.5,10.1-5.9,16.2-5.9c4.3,0,8.3,1.2,11.8,3.1c0.5,0.2,0.9,0.3,1.4,0.3    c1.5,0,2.9-1.2,2.9-2.9V16.4C65.7,15.3,65.1,14.3,64.1,13.8z M27.5,47.4c-3.4-1.2-6.8-1.8-10.3-1.8c-3.5,0-6.9,0.6-10.3,1.8V18.2    c3.3-1.4,6.7-2.1,10.3-2.1c3.5,0,7,0.7,10.3,2.1L27.5,47.4L27.5,47.4z"
   id="path2"
   style="fill:#ffffff" />&#10;		<polygon
   class="st0"
   points="53.9,0 39.2,14.7 39.2,42.6 53.9,29.4   "
   id="polygon2"
   style="fill:#ffffff" />&#10;		<path
   class="st0"
   d="M8.1,29.1l5.2,5.2l3.8,3.8l1.8-1.8V34c0-1.5,1.2-2.7,2.7-2.7h2.2l2.2-2.2c-2.3-2.2-5.5-3.6-8.9-3.6    C13.6,25.5,10.5,26.9,8.1,29.1z"
   id="path3"
   style="fill:#ffffff" />&#10;		<polygon
   points="53.9,0 39.2,14.7 39.2,42.6 53.9,29.4   "
   id="polygon3"
   style="fill:#ffffff" />&#10;		<path
   d="M8.1,29.1l5.2,5.2l3.8,3.8l1.8-1.8V34c0-1.5,1.2-2.7,2.7-2.7h2.2l2.2-2.2c-2.3-2.2-5.5-3.6-8.9-3.6    C13.6,25.5,10.5,26.9,8.1,29.1z"
   id="path4"
   style="fill:#ffffff" />&#10;		<path
   class="st0"
   d="M23.8,38h-3.6c-0.3,0-0.5-0.2-0.5-0.5v0c0,0.3,0.2,0.5,0.5,0.5L23.8,38c0.3,0,0.5-0.2,0.5-0.4v0    C24.2,37.8,24,38,23.8,38z"
   id="path5"
   style="fill:#ffffff" />&#10;		<path
   d="M23.8,34.4h-0.5v0L23.8,34.4c0.3,0,0.4,0.2,0.4,0.5v2.7h0v-2.7C24.3,34.6,24.1,34.4,23.8,34.4z"
   id="path6"
   style="fill:#ffffff" />&#10;		<path
   d="M22,32.2c0.8,0,1.3,0.6,1.3,1.3v0C23.4,32.8,22.8,32.2,22,32.2c-0.8,0-1.3,0.6-1.3,1.3v0C20.7,32.8,21.3,32.2,22,32.2z"
   id="path7"
   style="fill:#ffffff" />&#10;		<path
   d="M20.2,34.5h0.5v0L20.2,34.5c-0.3,0-0.5,0.2-0.5,0.4v0C19.7,34.7,20,34.5,20.2,34.5z"
   id="path8"
   style="fill:#ffffff" />&#10;		<rect
   x="21.3"
   y="34.4"
   width="1.3"
   height="0"
   id="rect8"
   style="fill:#ffffff" />&#10;		<path
   d="M23.8,34.5h-0.5v0v-0.9c0-0.7-0.6-1.3-1.3-1.3c-0.8,0-1.3,0.6-1.3,1.3v0.9v0h-0.5c-0.3,0-0.5,0.2-0.5,0.5v2.7    c0,0.3,0.2,0.5,0.5,0.5h3.6c0.3,0,0.5-0.2,0.5-0.5v-2.7C24.2,34.7,24.1,34.5,23.8,34.5z M22.7,34.4L22.7,34.4L22.7,34.4L22.7,34.4    L22.7,34.4l-1.3,0v0v-0.9v0c0-0.4,0.3-0.7,0.7-0.7s0.7,0.3,0.7,0.7V34.4z"
   id="path9"
   style="fill:#ffffff" />&#10;		<path
   d="M64.1,13.8c-1.4-0.7-2.8-1.3-4.3-1.8v35.4c-3.4-1.2-6.8-1.8-10.3-1.8c-5.6,0-11.1,1.6-16.2,4.7V14.6    c-4.8-2.7-10.3-4.4-16.2-4.4c-5.3,0-10.2,1.3-14.6,3.5c-1,0.5-1.6,1.5-1.6,2.6v35.5c0,1.7,1.4,2.9,2.9,2.9c0.5,0,0.9-0.1,1.4-0.3    c3.6-1.8,7.5-3,11.8-3c6.1,0,11.7,2.4,16.2,5.9c4.5-3.5,10.1-5.9,16.1-5.9c4.3,0,8.3,1.2,11.8,3.1c0.5,0.2,0.9,0.3,1.4,0.3    c1.5,0,2.9-1.2,2.9-2.9V16.4C65.7,15.3,65.1,14.3,64.1,13.8z M27.5,47.4c-3.4-1.2-6.8-1.8-10.3-1.8s-6.9,0.6-10.3,1.8V18.2    c3.3-1.4,6.7-2.1,10.3-2.1c3.5,0,7,0.7,10.3,2.1V47.4z"
   id="path10"
   style="fill:#ffffff" />&#10;	</g>&#10;	<g
   id="g22"
   style="fill:#ffffff">&#10;		<path
   d="M103.7,24.4c-0.3-2.7-1.3-4.7-3-5.9c-1.7-1.2-3.8-1.8-6.5-1.8c-1.1,0-2.1,0.1-3.1,0.3c-1,0.2-1.9,0.6-2.7,1.1    c-0.8,0.5-1.4,1.2-1.9,2c-0.5,0.8-0.7,1.9-0.7,3.1c0,1.2,0.3,2.1,1,2.8c0.7,0.7,1.6,1.3,2.8,1.8c1.2,0.5,2.5,0.8,3.9,1.1    c1.5,0.3,2.9,0.6,4.5,1c1.5,0.4,3,0.8,4.5,1.3c1.5,0.5,2.7,1.1,3.9,1.9c1.1,0.8,2,1.9,2.7,3.1c0.7,1.3,1,2.8,1,4.7    c0,2-0.5,3.7-1.4,5.2c-0.9,1.4-2.1,2.6-3.5,3.5c-1.4,0.9-3,1.6-4.8,2c-1.8,0.4-3.5,0.6-5.2,0.6c-2.1,0-4.1-0.3-6-0.8    c-1.9-0.5-3.6-1.3-5-2.4c-1.4-1.1-2.6-2.5-3.4-4.2c-0.8-1.7-1.2-3.7-1.2-6h4.8c0,1.6,0.3,3,0.9,4.1c0.6,1.2,1.4,2.1,2.4,2.8    c1,0.7,2.2,1.3,3.5,1.6c1.3,0.4,2.7,0.5,4.2,0.5c1.1,0,2.3-0.1,3.4-0.3c1.2-0.2,2.2-0.6,3.1-1.1c0.9-0.5,1.7-1.2,2.2-2.1    c0.6-0.9,0.9-2,0.9-3.4c0-1.3-0.3-2.4-1-3.2c-0.7-0.8-1.6-1.5-2.7-2c-1.1-0.5-2.4-0.9-3.9-1.3c-1.5-0.3-2.9-0.7-4.5-1    c-1.5-0.3-3-0.7-4.5-1.1c-1.5-0.4-2.8-1-3.9-1.8c-1.2-0.7-2.1-1.7-2.8-2.8c-0.7-1.1-1-2.6-1-4.3c0-1.9,0.4-3.6,1.2-5    c0.8-1.4,1.8-2.6,3.1-3.5c1.3-0.9,2.8-1.6,4.4-2c1.6-0.4,3.3-0.7,5.1-0.7c1.9,0,3.8,0.2,5.4,0.7c1.7,0.5,3.1,1.2,4.4,2.2    c1.2,1,2.2,2.2,3,3.7c0.7,1.5,1.2,3.3,1.2,5.4H103.7z"
   id="path11"
   style="fill:#ffffff" />&#10;		<path
   d="M138.9,42.5c-0.6,3-1.9,5.4-4,7c-2.1,1.6-4.7,2.4-7.8,2.4c-2.2,0-4.1-0.4-5.7-1.1c-1.6-0.7-3-1.7-4.1-3    c-1.1-1.3-1.9-2.8-2.5-4.6c-0.6-1.8-0.9-3.7-0.9-5.8c0-2.1,0.3-4,1-5.7s1.5-3.3,2.7-4.5c1.2-1.3,2.5-2.3,4.1-3    c1.6-0.7,3.3-1.1,5.2-1.1c2.4,0,4.5,0.5,6.1,1.5c1.6,1,2.9,2.3,3.9,3.9c1,1.6,1.6,3.3,2,5.1c0.4,1.8,0.5,3.6,0.5,5.3h-20.6    c0,1.2,0.1,2.3,0.4,3.4c0.3,1.1,0.8,2,1.5,2.9c0.7,0.8,1.6,1.5,2.7,2c1.1,0.5,2.4,0.7,3.9,0.7c1.9,0,3.4-0.4,4.7-1.3    c1.2-0.9,2.1-2.2,2.4-4H138.9z M134.5,34.8c-0.1-1.1-0.3-2.1-0.7-3c-0.4-1-1-1.8-1.6-2.5c-0.7-0.7-1.5-1.2-2.5-1.6    c-1-0.4-2-0.6-3.1-0.6c-1.2,0-2.2,0.2-3.2,0.6c-0.9,0.4-1.7,1-2.4,1.7c-0.7,0.7-1.2,1.5-1.6,2.5c-0.4,0.9-0.6,1.9-0.7,3H134.5z"
   id="path12"
   style="fill:#ffffff" />&#10;		<path
   d="M162.7,32.6c-0.4-1.7-1.1-3.1-2.3-4c-1.2-1-2.7-1.4-4.5-1.4c-1.6,0-3,0.3-4.1,0.9c-1.1,0.6-2,1.4-2.6,2.4    c-0.7,1-1.1,2.1-1.4,3.4c-0.3,1.3-0.4,2.6-0.4,4c0,1.3,0.2,2.5,0.5,3.7c0.3,1.2,0.8,2.3,1.4,3.2s1.5,1.7,2.5,2.3    c1,0.6,2.2,0.9,3.7,0.9c2.2,0,3.9-0.6,5.2-1.8c1.3-1.2,2.1-2.8,2.3-4.9h4.6c-0.5,3.4-1.8,6-3.8,7.9c-2.1,1.9-4.8,2.8-8.3,2.8    c-2.1,0-3.9-0.3-5.6-1c-1.6-0.7-3-1.7-4-2.9c-1.1-1.2-1.9-2.7-2.4-4.4c-0.5-1.7-0.8-3.6-0.8-5.7c0-2.1,0.3-4,0.8-5.8    c0.5-1.8,1.3-3.4,2.4-4.7c1.1-1.3,2.4-2.4,4-3.1c1.6-0.8,3.5-1.1,5.7-1.1c1.6,0,3,0.2,4.4,0.6c1.4,0.4,2.6,0.9,3.6,1.7    c1.1,0.8,1.9,1.8,2.6,3c0.7,1.2,1.1,2.6,1.2,4.2H162.7z"
   id="path13"
   style="fill:#ffffff" />&#10;		<path
   d="M195.3,51.2h-4.3v-4.4h-0.1c-1,1.7-2.2,3-3.7,3.8c-1.5,0.8-3.3,1.2-5.2,1.2c-1.8,0-3.3-0.2-4.5-0.7    c-1.2-0.5-2.2-1.2-2.9-2.1c-0.7-0.9-1.3-1.9-1.6-3.2s-0.5-2.6-0.5-4.1V23.7h4.5v18.6c0,1.7,0.5,3,1.5,4c1,1,2.4,1.5,4.1,1.5    c1.4,0,2.6-0.2,3.6-0.6c1-0.4,1.9-1,2.5-1.8c0.7-0.8,1.2-1.7,1.5-2.7c0.3-1,0.5-2.2,0.5-3.4V23.7h4.5V51.2z"
   id="path14"
   style="fill:#ffffff" />&#10;		<path
   d="M202,23.7h4.3v5.8h0.1c1.1-2.2,2.4-3.9,4-4.9c1.6-1.1,3.6-1.6,6.1-1.5v4.8c-1.8,0-3.4,0.2-4.6,0.7    c-1.3,0.5-2.3,1.2-3.1,2.2c-0.8,1-1.3,2.1-1.7,3.5c-0.4,1.4-0.5,2.9-0.5,4.7v12.2H202V23.7z"
   id="path15"
   style="fill:#ffffff" />&#10;		<path
   d="M224.6,18.8h-4.5v-5.5h4.5V18.8z M220.1,23.7h4.5v27.5h-4.5V23.7z"
   id="path16"
   style="fill:#ffffff" />&#10;		<path
   d="M231.6,23.7h4.3v4.4h0.1c1-1.7,2.2-3,3.7-3.8c1.5-0.8,3.3-1.2,5.2-1.2c1.8,0,3.3,0.2,4.5,0.7c1.2,0.5,2.2,1.2,2.9,2.1    c0.7,0.9,1.3,1.9,1.6,3.2c0.3,1.2,0.5,2.6,0.5,4.1v18.1h-4.5V32.6c0-1.7-0.5-3-1.5-4c-1-1-2.4-1.5-4.1-1.5c-1.4,0-2.6,0.2-3.6,0.6    c-1,0.4-1.9,1-2.5,1.8c-0.7,0.8-1.2,1.7-1.5,2.7c-0.3,1-0.5,2.2-0.5,3.4v15.5h-4.5V23.7z"
   id="path17"
   style="fill:#ffffff" />&#10;		<path
   d="M285,48.9c0,4.5-1,7.9-3.1,10.1c-2.1,2.3-5.3,3.4-9.7,3.4c-1.3,0-2.6-0.1-3.9-0.4c-1.3-0.3-2.5-0.7-3.6-1.4    c-1.1-0.6-2-1.5-2.7-2.5c-0.7-1-1.1-2.3-1.2-3.8h4.5c0,0.8,0.3,1.5,0.8,2.1c0.5,0.6,1.1,1,1.8,1.4c0.7,0.4,1.4,0.6,2.3,0.8    c0.8,0.2,1.6,0.2,2.3,0.2c1.5,0,2.7-0.3,3.8-0.8c1-0.5,1.9-1.2,2.6-2.1c0.7-0.9,1.2-2,1.5-3.3c0.3-1.3,0.5-2.7,0.5-4.3v-1.8h-0.1    c-0.4,0.9-0.9,1.6-1.5,2.2c-0.6,0.6-1.3,1.1-2,1.5c-0.8,0.4-1.6,0.7-2.4,0.9c-0.9,0.2-1.7,0.3-2.6,0.3c-2.1,0-3.8-0.4-5.4-1.1    c-1.5-0.7-2.8-1.8-3.8-3s-1.8-2.8-2.3-4.4c-0.5-1.7-0.8-3.5-0.8-5.3c0-1.6,0.2-3.3,0.6-5s1.1-3.3,2.1-4.7c1-1.4,2.3-2.6,3.9-3.5    c1.6-0.9,3.6-1.4,6-1.4c1.7,0,3.3,0.4,4.8,1.1c1.5,0.8,2.6,1.9,3.4,3.4h0.1v-3.9h4.3V48.9z M272.3,47.5c1.5,0,2.8-0.3,3.8-0.9    c1-0.6,1.9-1.4,2.5-2.4c0.6-1,1.1-2.2,1.4-3.4s0.5-2.6,0.5-3.8c0-1.2-0.1-2.4-0.4-3.6c-0.3-1.2-0.7-2.2-1.4-3.2    c-0.6-0.9-1.4-1.7-2.4-2.3c-1-0.6-2.2-0.9-3.6-0.9c-1.5,0-2.7,0.3-3.7,0.8c-1,0.5-1.9,1.3-2.5,2.2c-0.7,0.9-1.1,2-1.4,3.2    c-0.3,1.2-0.5,2.5-0.5,3.8c0,1.2,0.1,2.5,0.4,3.7c0.2,1.2,0.7,2.4,1.3,3.4c0.6,1,1.4,1.8,2.4,2.4    C269.5,47.2,270.8,47.5,272.3,47.5z"
   id="path18"
   style="fill:#ffffff" />&#10;		<path
   d="M341.6,51.2h-5.3l-8.7-31.9h-0.1l-8.8,31.9h-5.3l-9.7-38h5.2l7.4,31.6h0.1l8.5-31.6h5.5l8.4,31.6h0.1l7.7-31.6h5.1    L341.6,51.2z"
   id="path19"
   style="fill:#ffffff" />&#10;		<path
   d="M360.5,18.8H356v-5.5h4.5V18.8z M356,23.7h4.5v27.5H356V23.7z"
   id="path20"
   style="fill:#ffffff" />&#10;		<path
   d="M368.3,13.2h24.9v4.3h-19.9v12.1h17.4v4.3h-17.4v17.4h-5.1V13.2z"
   id="path21"
   style="fill:#ffffff" />&#10;		<path
   d="M402.9,18.8h-4.5v-5.5h4.5V18.8z M398.4,23.7h4.5v27.5h-4.5V23.7z"
   id="path22"
   style="fill:#ffffff" />&#10;	</g>&#10;</g>&#10;</svg>
