<?xml version="1.0" encoding="utf-8"?>
<!-- Generator: Adobe Illustrator 25.0.0, SVG Export Plug-In . SVG Version: 6.00 Build 0)  -->
<svg version="1.1" id="Layer_1" xmlns="http://www.w3.org/2000/svg" xmlns:xlink="http://www.w3.org/1999/xlink" x="0px" y="0px"
	 viewBox="0 0 404.6 62.8" style="enable-background:new 0 0 404.6 62.8;" xml:space="preserve">
<style type="text/css">
	.st0{fill:#FFFFFF;}
</style>
<g>
	<g>
		<path class="st0" d="M346.1,29.1l5.2,5.2l3.8,3.8l1.8-1.8V34c0-1.5,1.2-2.7,2.7-2.7h2.2l2.2-2.2c-2.3-2.2-5.5-3.6-8.9-3.6
			S348.5,26.9,346.1,29.1z"/>
		<path class="st0" d="M402.1,13.8c-1.4-0.7-2.8-1.3-4.3-1.8v35.4c-3.4-1.2-6.8-1.8-10.3-1.8c-5.6,0-11.1,1.6-16.2,4.7V14.6
			c-4.8-2.7-10.3-4.4-16.2-4.4c-5.3,0-10.2,1.3-14.6,3.5c-1,0.5-1.6,1.5-1.6,2.6v35.5c0,1.7,1.4,2.9,2.9,2.9c0.5,0,0.9-0.1,1.4-0.3
			c3.6-1.8,7.5-3,11.8-3c6.1,0,11.7,2.4,16.2,5.9c4.5-3.5,10.1-5.9,16.2-5.9c4.3,0,8.3,1.2,11.8,3.1c0.5,0.2,0.9,0.3,1.4,0.3
			c1.5,0,2.9-1.2,2.9-2.9V16.4C403.7,15.3,403.1,14.3,402.1,13.8z M365.5,47.4c-3.4-1.2-6.8-1.8-10.3-1.8c-3.5,0-6.9,0.6-10.3,1.8
			V18.2c3.3-1.4,6.7-2.1,10.3-2.1c3.5,0,7,0.7,10.3,2.1V47.4L365.5,47.4z"/>
		<polygon class="st0" points="391.9,0 377.2,14.7 377.2,42.6 391.9,29.4 		"/>
		<path class="st0" d="M346.1,29.1l5.2,5.2l3.8,3.8l1.8-1.8V34c0-1.5,1.2-2.7,2.7-2.7h2.2l2.2-2.2c-2.3-2.2-5.5-3.6-8.9-3.6
			C351.6,25.5,348.5,26.9,346.1,29.1z"/>
		<polygon class="st0" points="391.9,0 377.2,14.7 377.2,42.6 391.9,29.4 		"/>
		<path class="st0" d="M346.1,29.1l5.2,5.2l3.8,3.8l1.8-1.8V34c0-1.5,1.2-2.7,2.7-2.7h2.2l2.2-2.2c-2.3-2.2-5.5-3.6-8.9-3.6
			C351.6,25.5,348.5,26.9,346.1,29.1z"/>
		<path class="st0" d="M361.8,38h-3.6c-0.3,0-0.5-0.2-0.5-0.5v0c0,0.3,0.2,0.5,0.5,0.5L361.8,38c0.3,0,0.5-0.2,0.5-0.4v0
			C362.2,37.8,362,38,361.8,38z"/>
		<path class="st0" d="M361.8,34.4h-0.5v0L361.8,34.4c0.3,0,0.4,0.2,0.4,0.5v2.7h0v-2.7C362.3,34.6,362.1,34.4,361.8,34.4z"/>
		<path class="st0" d="M360,32.2c0.8,0,1.3,0.6,1.3,1.3v0C361.4,32.8,360.8,32.2,360,32.2c-0.8,0-1.3,0.6-1.3,1.3v0
			C358.7,32.8,359.3,32.2,360,32.2z"/>
		<path class="st0" d="M358.2,34.5h0.5v0L358.2,34.5c-0.3,0-0.5,0.2-0.5,0.4v0C357.7,34.7,358,34.5,358.2,34.5z"/>
		<rect x="359.3" y="34.4" class="st0" width="1.3" height="0"/>
		<path class="st0" d="M361.8,34.5h-0.5v0v-0.9c0-0.7-0.6-1.3-1.3-1.3s-1.3,0.6-1.3,1.3v0.9v0h-0.5c-0.3,0-0.5,0.2-0.5,0.5v2.7
			c0,0.3,0.2,0.5,0.5,0.5h3.6c0.3,0,0.5-0.2,0.5-0.5v-2.7C362.2,34.7,362.1,34.5,361.8,34.5z M360.7,34.4L360.7,34.4L360.7,34.4
			L360.7,34.4L360.7,34.4l-1.3,0v0v-0.9v0c0-0.4,0.3-0.7,0.7-0.7s0.7,0.3,0.7,0.7V34.4z"/>
		<path class="st0" d="M402.1,13.8c-1.4-0.7-2.8-1.3-4.3-1.8v35.4c-3.4-1.2-6.8-1.8-10.3-1.8c-5.6,0-11.1,1.6-16.2,4.7V14.6
			c-4.8-2.7-10.3-4.4-16.2-4.4c-5.3,0-10.2,1.3-14.6,3.5c-1,0.5-1.6,1.5-1.6,2.6v35.5c0,1.7,1.4,2.9,2.9,2.9c0.5,0,0.9-0.1,1.4-0.3
			c3.6-1.8,7.5-3,11.8-3c6.1,0,11.7,2.4,16.2,5.9c4.5-3.5,10.1-5.9,16.1-5.9c4.3,0,8.3,1.2,11.8,3.1c0.5,0.2,0.9,0.3,1.4,0.3
			c1.5,0,2.9-1.2,2.9-2.9V16.4C403.7,15.3,403.1,14.3,402.1,13.8z M365.5,47.4c-3.4-1.2-6.8-1.8-10.3-1.8s-6.9,0.6-10.3,1.8V18.2
			c3.3-1.4,6.7-2.1,10.3-2.1c3.5,0,7,0.7,10.3,2.1V47.4z"/>
	</g>
	<g>
		<path class="st0" d="M16.6,51.2c-1.6,0-2.8-0.5-3.7-1.6s-1.2-3.2-1.2-6.4c-0.5,0.8-1.1,1.4-2,1.9s-1.8,0.8-2.6,0.8
			c-1.5,0-2.7-0.5-3.6-1.6S2,41.7,2,39.9c0-2,0.9-3.9,2.6-5.6s4.1-2.9,7.1-3.5v-1.5h2.7v13.9c0,1.5,0.2,2.6,0.5,3.2s0.9,1,1.7,1
			V51.2z M11.7,39.5v-6C9.5,34,7.8,34.8,6.6,36s-1.8,2.5-1.8,3.9c0,0.8,0.2,1.4,0.7,1.8s1,0.6,1.7,0.6C9,42.3,10.6,41.4,11.7,39.5z
			 M7.8,26.5h-3v-3h3V26.5z M13.3,26.5h-3v-3h3V26.5z"/>
		<path class="st0" d="M25.2,45.7c0,1.7-0.6,3-1.8,4s-2.8,1.5-4.9,1.5h-1.8c-0.7,0-1.3-0.3-1.8-1s-0.8-1.6-0.8-2.8h4.2
			c2.8,0,4.2-1.1,4.2-3.2v-7.6h2.7V45.7z M19.6,57.2h-3v-3h3V57.2z M25.2,57.2h-3v-3h3V57.2z"/>
		<path class="st0" d="M41.7,23.9L33.1,29c-0.6,0.3-1.1,0.6-1.5,1.1s-0.7,0.8-0.7,1.1c0,0.8,0.6,1.8,1.9,3l5.8,5.5
			c1.7,1.6,2.8,2.9,3.3,3.7s0.7,1.6,0.7,2.4c0,3.6-2.4,5.4-7.3,5.4h-8.4c-0.7,0-1.3-0.3-1.8-1s-0.8-1.6-0.8-2.8h10.9
			c1.5,0,2.5-0.2,3-0.5s0.9-0.9,0.9-1.7c0-0.5-0.3-1.1-0.8-1.7s-1.6-1.7-3.3-3.3l-5.9-5.6c-1.4-1.4-2.2-2.7-2.2-4
			c0-0.7,0.3-1.4,0.8-1.9s1.8-1.4,3.6-2.5l10.3-6.2V23.9z"/>
		<path class="st0" d="M50.8,45.7c0,1.7-0.6,3-1.8,4s-2.8,1.5-4.9,1.5h-0.7c-0.7,0-1.3-0.3-1.8-1s-0.8-1.6-0.8-2.8h3
			c2.8,0,4.2-1.1,4.2-3.2V19.3h2.7V45.7z"/>
		<path class="st0" d="M76.2,47.4c0,2.6-1.2,3.9-3.7,3.9h-1.7c-2,0-3.4-0.5-4.1-1.5c-0.7,1-2.1,1.5-4.1,1.5s-3.4-0.5-4.1-1.5
			c-0.8,1-2.2,1.5-4.4,1.5h-1.7c-0.7,0-1.3-0.3-1.8-1s-0.8-1.6-0.8-2.8h4.2c2,0,3.1-0.9,3.1-2.7v-2.1h2.7v2.1c0,1.8,0.9,2.7,2.7,2.7
			c1.8,0,2.7-0.9,2.7-2.7v-2.1h2.7v2.1c0,1.8,0.9,2.7,2.7,2.7s2.7-0.5,2.7-1.6v-7.5h2.7V47.4z"/>
		<path class="st0" d="M102.9,51.2c-2,0-3.5-0.6-4.6-1.8s-1.6-2.9-1.6-5v-5.8c-0.7,0.8-1.2,1.5-1.5,2.1c-0.3,1.3-1.2,3-2.7,5.3
			s-3,4-4.5,5.3H83c2.3-1.7,4.5-3.8,6.6-6.3s3.1-4.4,3.1-5.7c0-2-1.3-4.8-3.8-8.1s-5.8-6.8-9.9-10.3h5.8c6.2,6.9,9.7,12.7,10.5,17.3
			c1-1.1,1.5-2,1.5-2.6V19.3h2.7v24.9c0,1.2,0.3,2,0.8,2.5s1.4,0.7,2.6,0.7h0.1V51.2z"/>
		<path class="st0" d="M110.3,45.7c0,1.7-0.6,3-1.8,4s-2.8,1.5-4.9,1.5h-0.7c-0.7,0-1.3-0.3-1.8-1s-0.8-1.6-0.8-2.8h3
			c2.8,0,4.2-1.1,4.2-3.2V19.3h2.7V45.7z"/>
		<path class="st0" d="M118.2,51.2h-2.7V19.3h2.7V51.2z"/>
		<path class="st0" d="M161.3,45.3c0,1.9-0.8,3.4-2.5,4.4c-1.6,1-4.1,1.5-7.3,1.5h-6.7c-6.8,0-10.3-3.3-10.3-9.8
			c0-1.6,0.2-3.2,0.6-4.9h2.7v0.2c-0.4,1.5-0.6,3-0.6,4.5c0,2.2,0.6,3.8,1.8,4.7s3.1,1.4,5.8,1.4h6.5c2.3,0,4.1-0.3,5.4-0.8
			s1.9-1.5,1.9-2.8v-7.2h2.7V45.3z M147.3,34.5h-3v-3h3V34.5z M152.8,34.5h-3v-3h3V34.5z"/>
		<path class="st0" d="M172.8,51.2c-1.9,0-3.5-0.6-4.5-1.8c-1.1-1.2-1.6-2.9-1.6-5V19.3h2.7v24.9c0,1.2,0.3,2,0.8,2.5
			c0.5,0.5,1.4,0.7,2.6,0.7h0.1V51.2z"/>
		<path class="st0" d="M187.6,23.9L179,29c-0.6,0.3-1.1,0.6-1.5,1.1s-0.7,0.8-0.7,1.1c0,0.8,0.6,1.8,1.9,3l5.8,5.5
			c1.7,1.6,2.8,2.9,3.3,3.7s0.7,1.6,0.7,2.4c0,3.6-2.4,5.4-7.3,5.4h-8.4c-0.7,0-1.3-0.3-1.8-1s-0.8-1.6-0.8-2.8h10.9
			c1.5,0,2.5-0.2,3-0.5s0.9-0.9,0.9-1.7c0-0.5-0.3-1.1-0.8-1.7c-0.5-0.6-1.6-1.7-3.3-3.3l-5.9-5.6c-1.4-1.4-2.2-2.7-2.2-4
			c0-0.7,0.3-1.4,0.8-1.9s1.8-1.4,3.6-2.5l10.3-6.2V23.9z"/>
		<path class="st0" d="M197.9,45.7c0,1.7-0.6,3-1.8,4s-2.8,1.5-4.9,1.5h-1.8c-0.7,0-1.3-0.3-1.8-1s-0.8-1.6-0.8-2.8h4.2
			c2.8,0,4.2-1.1,4.2-3.2v-7.6h2.7V45.7z M195,57.2h-3v-3h3V57.2z"/>
		<path class="st0" d="M223.3,47.4c0,2.6-1.2,3.9-3.7,3.9h-1.7c-2,0-3.4-0.5-4.1-1.5c-0.7,1-2.1,1.5-4.1,1.5s-3.4-0.5-4.1-1.5
			c-0.8,1-2.2,1.5-4.4,1.5h-1.7c-0.7,0-1.3-0.3-1.8-1s-0.8-1.6-0.8-2.8h4.2c2,0,3.1-0.9,3.1-2.7v-2.1h2.7v2.1c0,1.8,0.9,2.7,2.7,2.7
			c1.8,0,2.7-0.9,2.7-2.7v-2.1h2.7v2.1c0,1.8,0.9,2.7,2.7,2.7s2.7-0.5,2.7-1.6v-7.5h2.7V47.4z M211,36.5h-3v-3h3V36.5z M214.1,32.2
			h-3v-3h3V32.2z M217.1,36.5h-3v-3h3V36.5z"/>
		<path class="st0" d="M232.4,45.7c0,1.7-0.6,3-1.8,4s-2.8,1.5-4.9,1.5H225c-0.7,0-1.3-0.3-1.8-1s-0.8-1.6-0.8-2.8h3
			c2.8,0,4.2-1.1,4.2-3.2V19.3h2.7V45.7z"/>
		<path class="st0" d="M240.3,51.2h-2.7V19.3h2.7V51.2z"/>
		<path class="st0" d="M276.1,43c0.4,1.6,0.6,3.2,0.6,4.7c0,3.8-0.9,6.8-2.7,9s-4.3,3.3-7.6,3.3s-5.9-1.1-7.6-3.3s-2.7-5.2-2.7-9
			c0-1.5,0.2-3.1,0.6-4.7h2.7v0.2c-0.4,1.3-0.6,2.7-0.6,4.2c0,5.7,2.5,8.6,7.6,8.6s7.6-2.9,7.6-8.6c0-0.8-0.1-1.7-0.3-2.8l-0.3-1.4
			V43H276.1z M267.9,41h-3v-3h3V41z"/>
		<path class="st0" d="M285.8,45.7c0,1.7-0.6,3-1.8,4s-2.8,1.5-4.9,1.5h-1.8c-0.7,0-1.3-0.3-1.8-1s-0.8-1.6-0.8-2.8h4.2
			c2.8,0,4.2-1.1,4.2-3.2v-7.6h2.7V45.7z M280.3,57.2h-3v-3h3V57.2z M285.8,57.2h-3v-3h3V57.2z"/>
		<path class="st0" d="M285,47.4h1.8c1.3,0,2.1-0.4,2.5-1.1s0.6-1.9,0.7-3.6c0.3-4.9,2.2-7.3,5.7-7.3c2.2,0,4,0.8,5.4,2.5
			c1.4,1.6,2.1,3.8,2.1,6.4c0,2.2-0.5,4-1.6,5.3s-2.5,2-4.4,2c-2.3,0-4.1-1.1-5.5-3.2c-0.6,1.2-1.2,2-1.7,2.4s-1.2,0.5-2.1,0.5h-0.4
			c-0.7,0-1.3-0.3-1.8-1S285,48.5,285,47.4z M296.9,47.8c1.1,0,1.9-0.3,2.6-1c0.6-0.7,1-1.5,1-2.4c0-1.3-0.4-2.5-1.2-3.6
			s-1.9-1.6-3.2-1.6c-2.3,0-3.4,1.3-3.4,4c0,1.2,0.4,2.2,1.2,3.2C294.6,47.3,295.7,47.8,296.9,47.8z"/>
		<path class="st0" d="M311.6,18.2h-5.2v-1.4h1.1c-0.6-0.3-0.9-0.9-0.9-1.6c0-0.7,0.2-1.3,0.7-1.8s1.1-0.7,1.9-0.7
			c0.8,0,1.3,0.1,1.8,0.2v1.5c-0.5-0.2-1.1-0.3-1.7-0.3c-0.9,0-1.4,0.4-1.4,1.1c0,0.4,0.2,0.8,0.7,1.1s1,0.5,1.7,0.5h1.1V18.2z
			 M313.8,51.2c-1.9,0-3.5-0.6-4.5-1.8c-1.1-1.2-1.6-2.9-1.6-5V19.3h2.7v24.9c0,1.2,0.3,2,0.8,2.5c0.5,0.5,1.4,0.7,2.6,0.7h0.1V51.2
			z"/>
		<path class="st0" d="M322.4,45.7c0,1.7-0.6,3-1.8,4s-2.8,1.5-4.9,1.5h-1.8c-0.7,0-1.3-0.3-1.8-1s-0.8-1.6-0.8-2.8h4.2
			c2.8,0,4.2-1.1,4.2-3.2v-7.6h2.7V45.7z M316.4,32.9h-3v-3h3V32.9z M322,32.9h-3v-3h3V32.9z"/>
	</g>
</g>
</svg>
