<?xml version="1.0" standalone="no"?>
<!DOCTYPE svg PUBLIC "-//W3C//DTD SVG 20010904//EN"
 "http://www.w3.org/TR/2001/REC-SVG-20010904/DTD/svg10.dtd">
<svg version="1.0" xmlns="http://www.w3.org/2000/svg"
 width="700.000000pt" height="700.000000pt" viewBox="0 0 700.000000 700.000000"
 preserveAspectRatio="xMidYMid meet">
<metadata>
Created by potrace 1.14, written by Peter Selinger 2001-2017
</metadata>
<g transform="translate(0.000000,700.000000) scale(0.100000,-0.100000)"
fill="#000000" stroke="none">
<path d="M4942 5798 c-430 -431 -785 -787 -789 -791 -5 -5 -8 -683 -9 -1507 0
-1354 1 -1498 15 -1487 9 7 38 32 65 57 27 25 54 50 60 55 71 63 200 178 236
211 25 22 97 87 160 144 63 56 153 137 200 179 47 43 130 117 185 166 55 49
118 106 140 126 22 20 69 62 105 95 36 32 70 63 76 69 6 5 44 39 84 75 41 36
96 86 124 111 28 25 69 62 91 81 l40 36 1 1581 c0 870 0 1581 -1 1581 -1 0
-353 -352 -783 -782z"/>
<path d="M1607 5484 c-1 -1 -47 -5 -103 -8 -56 -4 -112 -9 -125 -11 -13 -2
-62 -9 -109 -15 -288 -39 -647 -144 -940 -277 -186 -84 -224 -112 -275 -205
l-30 -53 0 -1995 0 -1995 27 -50 c68 -130 203 -198 341 -173 28 5 106 35 172
65 171 79 374 156 470 179 6 1 45 12 88 24 68 18 154 36 261 54 123 21 485 29
636 13 86 -9 268 -41 355 -64 33 -8 68 -17 79 -19 10 -2 66 -20 125 -40 320
-110 549 -231 883 -470 l37 -26 103 74 c246 177 484 303 751 399 96 35 259 84
312 95 264 53 359 63 610 59 256 -3 355 -17 661 -94 113 -28 317 -110 496
-197 162 -80 243 -88 355 -33 71 34 116 81 151 159 l26 55 1 2000 c1 1949 1
2001 -18 2042 -27 61 -76 99 -202 159 -98 46 -304 131 -362 148 l-22 7 0
-1818 c0 -1000 0 -1857 -1 -1904 l0 -86 -72 24 c-100 33 -316 89 -413 108 -44
8 -91 17 -105 20 -14 3 -49 7 -78 11 -29 3 -63 7 -75 10 -112 22 -599 22 -712
0 -11 -2 -45 -7 -76 -10 -31 -4 -65 -8 -75 -10 -11 -2 -39 -7 -64 -11 -25 -3
-115 -24 -200 -45 -312 -78 -595 -190 -872 -348 l-108 -61 0 1918 c0 1523 -3
1921 -12 1929 -26 20 -296 152 -405 196 -243 100 -531 186 -703 211 -24 4 -47
8 -50 10 -3 2 -44 9 -90 15 -47 6 -96 13 -110 15 -78 12 -523 28 -533 19z
m453 -647 c23 -5 123 -19 160 -22 13 -1 54 -8 120 -20 112 -21 397 -108 500
-152 l45 -20 0 -1570 0 -1570 -75 24 c-213 68 -418 115 -600 139 -25 3 -56 7
-70 9 -241 35 -651 21 -935 -30 -109 -20 -114 -21 -165 -35 -25 -7 -53 -14
-62 -15 -33 -7 -167 -46 -237 -70 l-71 -24 -1 37 c-1 47 -1 3048 0 3083 1 24
10 30 94 62 174 66 379 123 532 147 39 6 81 13 95 15 14 2 54 7 90 10 36 4 67
8 68 10 6 6 485 -2 512 -8z"/>
<path d="M1545 3820 c-55 -9 -117 -23 -138 -29 -21 -7 -44 -14 -50 -15 -119
-21 -380 -167 -522 -291 l-39 -34 484 -485 484 -484 97 95 97 95 1 141 c1 78
4 155 7 170 9 54 46 117 91 157 68 59 123 73 290 74 l142 1 115 117 c64 64
116 118 116 121 0 9 -146 124 -205 162 -123 78 -294 152 -425 184 -172 41
-381 49 -545 21z"/>
<path d="M2243 3102 c-13 -2 -23 -8 -23 -13 0 -6 -4 -8 -8 -5 -4 2 -18 -11
-31 -29 -21 -31 -28 -71 -31 -167 0 -14 -9 -18 -39 -18 -63 0 -67 -13 -66
-206 1 -151 3 -168 20 -180 15 -11 66 -14 226 -14 183 0 209 2 229 18 21 17
21 23 18 190 -3 191 -3 192 -70 192 l-37 0 2 65 c1 36 -1 65 -5 65 -4 0 -5 7
-2 15 4 8 1 15 -5 15 -7 0 -11 8 -9 17 2 10 -1 18 -7 18 -5 0 -22 8 -36 18
-26 18 -85 27 -126 19z m113 -73 c14 -16 19 -36 19 -82 l0 -62 -72 -2 -73 -3
0 65 c0 52 4 69 20 85 27 27 81 26 106 -1z"/>
</g>
</svg>
