<?xml version="1.0" encoding="UTF-8" standalone="no"?>
<svg
   height="48"
   viewBox="0 -960 960 960"
   width="48"
   version="1.1"
   id="svg1"
   sodipodi:docname="github.svg"
   inkscape:version="1.3 (0e150ed6c4, 2023-07-21)"
   xml:space="preserve"
   xmlns:inkscape="http://www.inkscape.org/namespaces/inkscape"
   xmlns:sodipodi="http://sodipodi.sourceforge.net/DTD/sodipodi-0.dtd"
   xmlns="http://www.w3.org/2000/svg"
   xmlns:svg="http://www.w3.org/2000/svg"><defs
     id="defs1" /><sodipodi:namedview
     id="namedview1"
     pagecolor="#ffffff"
     bordercolor="#666666"
     borderopacity="1.0"
     inkscape:showpageshadow="2"
     inkscape:pageopacity="0.0"
     inkscape:pagecheckerboard="0"
     inkscape:deskcolor="#d1d1d1"
     inkscape:zoom="12.683728"
     inkscape:cx="26.332952"
     inkscape:cy="28.264561"
     inkscape:window-width="1920"
     inkscape:window-height="1056"
     inkscape:window-x="0"
     inkscape:window-y="0"
     inkscape:window-maximized="1"
     inkscape:current-layer="svg1" /><path
     id="path1"
     style="stroke-width:1.31591;fill:#ffffff"
     d="M 84.101562 -952.61719 C 63.047014 -952.61719 44.619033 -944.73623 28.828125 -928.94531 C 13.037217 -913.15441 5.15625 -894.72642 5.15625 -873.67188 L 5.15625 -84.101562 C 5.15625 -63.047014 13.037217 -44.619033 28.828125 -28.828125 C 44.619033 -13.037217 63.047014 -5.15625 84.101562 -5.15625 L 873.67188 -5.15625 C 894.72642 -5.15625 913.15441 -13.037217 928.94531 -28.828125 C 944.73623 -44.619033 952.61719 -63.047014 952.61719 -84.101562 L 952.61719 -873.67188 C 952.61719 -894.72642 944.73623 -913.15441 928.94531 -928.94531 C 913.15441 -944.73623 894.72642 -952.61719 873.67188 -952.61719 L 84.101562 -952.61719 z M 471.5625 -818.28125 C 665.50231 -818.28125 822.69531 -671.0492 822.69531 -477.10938 C 822.90661 -322.04199 728.26209 -189.13418 588.82812 -142.65625 C 571.08204 -139.48728 564.53125 -150.48595 564.53125 -159.57031 C 564.53125 -170.97852 564.96094 -229.29452 564.96094 -276.40625 C 564.96094 -309.36338 553.98084 -330.26431 541.09375 -341.25 C 619.26117 -349.91181 701.64062 -360.70581 701.64062 -495.70312 C 701.64062 -534.1531 687.90179 -553.3681 665.50781 -578.08594 C 669.09941 -587.17026 681.13904 -624.57347 661.91406 -673.16406 C 632.54839 -682.24838 565.39062 -635.35156 565.39062 -635.35156 C 537.50385 -643.16829 507.28817 -647.1875 477.5 -647.1875 C 447.71183 -647.1875 417.49615 -643.16829 389.60938 -635.35156 C 389.60938 -635.35156 322.41245 -682.24838 293.04688 -673.16406 C 273.82189 -624.78474 285.65043 -587.38154 289.45312 -578.08594 C 267.05925 -553.3681 256.52344 -534.1531 256.52344 -495.70312 C 256.52344 -361.33961 335.30904 -349.91181 413.47656 -341.25 C 403.33587 -332.16569 394.26275 -316.53457 391.09375 -294.14062 C 371.02377 -285.05631 319.69567 -269.43218 289.0625 -323.51562 C 269.83752 -356.89522 235.19531 -359.64844 235.19531 -359.64844 C 200.97055 -360.07095 232.85156 -338.08594 232.85156 -338.08594 C 255.66794 -327.52276 271.71875 -286.95312 271.71875 -286.95312 C 292.21123 -224.20787 390.23438 -245.35156 390.23438 -245.35156 C 390.23438 -215.98596 390.66406 -168.23211 390.66406 -159.57031 C 390.66406 -150.48595 384.32457 -139.48728 366.36719 -142.65625 C 226.93333 -189.34546 129.33594 -322.04199 129.33594 -477.10938 C 129.33594 -671.0492 277.62269 -818.28125 471.5625 -818.28125 z M 253.04688 -348.75 C 253.99822 -348.8464 255.08751 -348.70434 256.28906 -348.24219 C 259.03546 -346.76337 260.29812 -344.42451 259.45312 -342.73438 C 258.60803 -340.83301 255.87859 -340.43519 253.55469 -341.91406 C 250.80829 -343.18164 249.54553 -345.48143 250.39062 -347.38281 C 250.86594 -348.09583 251.82371 -348.62606 253.04688 -348.75 z M 267.46094 -336.75781 C 269.17094 -336.92177 271.17576 -335.94461 272.77344 -334.49219 C 275.09734 -331.74575 275.53411 -328.58819 273.63281 -327.10938 C 271.73141 -325.208 268.5739 -326.24673 266.25 -328.35938 C 263.9261 -331.10577 263.48923 -334.30238 265.39062 -335.78125 C 265.98478 -336.37543 266.68366 -336.68329 267.46094 -336.75781 z M 281.71875 -318.86719 C 283.73338 -318.96327 285.97712 -317.55113 287.34375 -315.27344 C 289.66765 -312.10447 289.66765 -308.29166 287.34375 -306.60156 C 285.44235 -305.33398 281.85515 -306.59666 279.53125 -309.76562 C 277.20735 -312.93458 277.20735 -316.52894 279.53125 -318.00781 C 280.18485 -318.54258 280.93042 -318.82959 281.71875 -318.86719 z M 298.47656 -298.78906 C 300.39525 -298.95411 302.70688 -298.03529 304.6875 -296.05469 C 307.4339 -293.30829 308.50296 -289.07295 306.60156 -287.38281 C 304.70016 -285.05892 300.669 -285.50296 297.5 -288.67188 C 294.3311 -291.41833 293.47324 -295.40331 295.58594 -297.30469 C 296.29892 -298.17616 297.32535 -298.69003 298.47656 -298.78906 z M 324.25781 -283.4375 C 325.06208 -283.44819 325.85499 -283.34892 326.64062 -283.16406 C 330.86592 -281.89648 333.63442 -278.72302 332.57812 -275.97656 C 331.73303 -273.23016 327.49775 -271.97462 323.90625 -273.24219 C 319.89225 -274.08723 317.16281 -277.25356 318.00781 -280 C 318.66805 -282.14563 321.38541 -283.39931 324.25781 -283.4375 z M 380.82031 -282.1875 C 384.39685 -282.21984 387.54671 -280.57487 387.92969 -278.08594 C 388.56349 -275.33948 385.7877 -272.60289 381.5625 -271.75781 C 377.5484 -270.91274 373.78187 -272.60518 373.35938 -275.35156 C 372.93688 -278.52053 375.6735 -281.26432 379.6875 -282.10938 C 380.06381 -282.14899 380.45033 -282.18415 380.82031 -282.1875 z M 354.45312 -278.78906 C 358.17833 -278.87028 361.52344 -276.64276 361.52344 -273.67188 C 361.52344 -270.92542 358.32686 -268.59375 354.10156 -268.59375 C 349.45377 -268.17122 346.28906 -270.50291 346.28906 -273.67188 C 346.28906 -276.41826 349.48564 -278.71094 353.71094 -278.71094 C 353.96181 -278.73734 354.20478 -278.78365 354.45312 -278.78906 z " /></svg>
