<?xml version="1.0" encoding="UTF-8" standalone="no"?>
<svg
   height="48"
   viewBox="0 -960 960 960"
   width="48"
   version="1.1"
   id="svg1"
   sodipodi:docname="wifi-wpa.svg"
   inkscape:version="1.3 (0e150ed6c4, 2023-07-21)"
   xmlns:inkscape="http://www.inkscape.org/namespaces/inkscape"
   xmlns:sodipodi="http://sodipodi.sourceforge.net/DTD/sodipodi-0.dtd"
   xmlns="http://www.w3.org/2000/svg"
   xmlns:svg="http://www.w3.org/2000/svg">
  <defs
     id="defs1" />
  <sodipodi:namedview
     id="namedview1"
     pagecolor="#ffffff"
     bordercolor="#666666"
     borderopacity="1.0"
     inkscape:showpageshadow="2"
     inkscape:pageopacity="0.0"
     inkscape:pagecheckerboard="0"
     inkscape:deskcolor="#d1d1d1"
     inkscape:zoom="17.9375"
     inkscape:cx="23.972125"
     inkscape:cy="24"
     inkscape:window-width="1920"
     inkscape:window-height="1056"
     inkscape:window-x="0"
     inkscape:window-y="0"
     inkscape:window-maximized="1"
     inkscape:current-layer="svg1" />
  <path
     d="M754 0q-17 0-28.5-11.5T714-40v-118q0-17 11.5-28.5T754-198h1v-39q0-35 23.5-58.5T837-319q35 0 58.5 23.5T919-237v39h1q17 0 28.5 11.5T960-158v118q0 17-11.5 28.5T920 0H754Zm41-198h84v-39q0-19-11.5-30.5T837-279q-19 0-30.5 11.5T795-237v39ZM232-357l-63-63q70-70 146.5-105T480-560q88 0 164.5 35T791-420l-63 63q-61-61-123-87t-125-26q-63 0-125 26t-123 87ZM63-526 0-589q93-95 216.5-153T480-800q140 0 263.5 58T960-589l-63 63q-88-84-192.5-134T480-710q-120 0-224.5 50T63-526Zm417 417 148-149q-29-29-66.5-45.5T480-320q-44 0-81.5 16.5T332-258l148 149Z"
     id="path1"
     style="fill:#ffff00" />
</svg>
