<?xml version="1.0" encoding="UTF-8" standalone="no"?>
<svg
   height="48"
   viewBox="0 -960 960 960"
   width="48"
   version="1.1"
   id="svg1"
   sodipodi:docname="wifi-web.svg"
   inkscape:version="1.3 (0e150ed6c4, 2023-07-21)"
   xmlns:inkscape="http://www.inkscape.org/namespaces/inkscape"
   xmlns:sodipodi="http://sodipodi.sourceforge.net/DTD/sodipodi-0.dtd"
   xmlns="http://www.w3.org/2000/svg"
   xmlns:svg="http://www.w3.org/2000/svg">
  <defs
     id="defs1" />
  <sodipodi:namedview
     id="namedview1"
     pagecolor="#ffffff"
     bordercolor="#666666"
     borderopacity="1.0"
     inkscape:showpageshadow="2"
     inkscape:pageopacity="0.0"
     inkscape:pagecheckerboard="0"
     inkscape:deskcolor="#d1d1d1"
     inkscape:zoom="32"
     inkscape:cx="43.9375"
     inkscape:cy="42.421875"
     inkscape:window-width="1920"
     inkscape:window-height="1056"
     inkscape:window-x="0"
     inkscape:window-y="0"
     inkscape:window-maximized="1"
     inkscape:current-layer="svg1" />
  <path
     id="path1"
     style="fill:#aa0000"
     d="M 480 -800 C 386.66676 -800 298.81763 -780.65882 216.48438 -741.99219 C 134.15112 -703.32556 61.999938 -652.31764 0 -588.98438 L 63.007812 -526.01562 C 121.67442 -582.01557 185.84122 -626.6667 255.50781 -660 C 325.17441 -693.3333 400.00008 -710 480 -710 C 559.99992 -710 634.82559 -693.3333 704.49219 -660 C 774.15878 -626.6667 838.32558 -582.01557 896.99219 -526.01562 L 960 -588.98438 C 898.00006 -652.31764 825.84888 -703.32556 743.51562 -741.99219 C 661.18237 -780.65882 573.33324 -800 480 -800 z M 480 -560 C 421.33339 -560 366.50776 -548.33331 315.50781 -525 C 264.50786 -501.66669 215.651 -466.66662 168.98438 -420 L 231.99219 -356.99219 C 272.65881 -397.65881 313.66671 -426.65106 355 -443.98438 C 396.33329 -461.31769 438.00004 -470 480 -470 C 521.99996 -470 563.66671 -461.31769 605 -443.98438 C 646.33329 -426.65106 687.34119 -397.65881 728.00781 -356.99219 L 791.01562 -420 C 744.34901 -466.66662 695.49214 -501.66669 644.49219 -525 C 593.49224 -548.33331 538.66661 -560 480 -560 z M 480 -320 C 450.6667 -320 423.5156 -314.51561 398.51562 -303.51562 C 373.51565 -292.51564 351.3255 -277.34113 331.99219 -258.00781 L 480 -108.98438 L 628.00781 -258.00781 C 608.6745 -277.34113 586.48435 -292.51564 561.48438 -303.51562 C 536.4844 -314.51561 509.3333 -320 480 -320 z M 836.99219 -318.98438 C 813.65888 -318.98438 794.18228 -311.17446 778.51562 -295.50781 C 762.84897 -279.84116 755 -260.3255 755 -236.99219 L 755 -198.00781 L 753.98438 -198.00781 C 742.65105 -198.00781 733.17447 -194.15103 725.50781 -186.48438 C 717.84115 -178.81772 713.98438 -169.34113 713.98438 -158.00781 L 713.98438 -40 C 713.98438 -28.666678 717.84115 -19.151034 725.50781 -11.484375 C 733.17447 -3.817716 742.65105 0 753.98438 0 L 920 0 C 931.33332 -1.1368684e-13 940.84897 -3.817716 948.51562 -11.484375 C 956.18228 -19.151034 960 -28.666678 960 -40 L 960 -158.00781 C 960 -169.34113 956.18228 -178.81772 948.51562 -186.48438 C 940.84897 -194.15103 931.33332 -198.00781 920 -198.00781 L 918.98438 -198.00781 L 918.98438 -198.04688 L 878.98438 -198.04688 L 878.98438 -198.00781 L 795 -198.00781 L 795 -236.99219 C 795 -249.65884 798.81772 -259.83334 806.48438 -267.5 C 814.15103 -275.16666 824.32553 -278.98438 836.99219 -278.98438 C 849.65884 -278.98438 859.83334 -275.16666 867.5 -267.5 C 875.16666 -259.83334 878.98438 -249.65884 878.98438 -236.99219 L 878.98438 -231.67969 L 918.98438 -231.67969 L 918.98438 -236.99219 C 918.98438 -260.3255 911.17446 -279.84116 895.50781 -295.50781 C 879.84116 -311.17446 860.3255 -318.98438 836.99219 -318.98438 z " />
</svg>
